<svg width="144" height="33" viewBox="0 0 144 33" fill="none" xmlns="http://www.w3.org/2000/svg">
<path d="M50.19 14.866C49.4713 15.5847 48.628 16.1493 47.66 16.56C46.7067 16.9707 45.6947 17.176 44.624 17.176C43.5387 17.176 42.5193 16.9707 41.566 16.56C40.6127 16.1493 39.784 15.5847 39.08 14.866C38.3613 14.162 37.7967 13.3333 37.386 12.38C36.9753 11.4267 36.77 10.4073 36.77 9.322C36.77 8.25133 36.9753 7.23933 37.386 6.286C37.7967 5.318 38.3613 4.47466 39.08 3.756C39.784 3.03733 40.6127 2.47266 41.566 2.062C42.5193 1.63666 43.5387 1.424 44.624 1.424C45.6947 1.424 46.7067 1.63666 47.66 2.062C48.628 2.47266 49.4713 3.03733 50.19 3.756C50.9087 4.47466 51.4733 5.318 51.884 6.286C52.3093 7.23933 52.522 8.25133 52.522 9.322C52.522 10.4073 52.3093 11.4267 51.884 12.38C51.4733 13.3333 50.9087 14.162 50.19 14.866ZM40.378 13.634C40.9207 14.1913 41.5587 14.6313 42.292 14.954C43.0253 15.2767 43.81 15.438 44.646 15.438C45.482 15.438 46.2667 15.2767 47 14.954C47.7333 14.6313 48.3787 14.1913 48.936 13.634C49.4787 13.0913 49.904 12.4533 50.212 11.72C50.5347 10.972 50.696 10.1727 50.696 9.322C50.696 8.47133 50.5347 7.67933 50.212 6.946C49.904 6.198 49.4787 5.54533 48.936 4.988C48.3787 4.43066 47.7333 3.99066 47 3.668C46.2667 3.34533 45.482 3.184 44.646 3.184C43.81 3.184 43.0253 3.34533 42.292 3.668C41.5587 3.99066 40.9207 4.43066 40.378 4.988C39.8207 5.54533 39.3807 6.198 39.058 6.946C38.75 7.67933 38.596 8.47133 38.596 9.322C38.596 10.1727 38.75 10.972 39.058 11.72C39.3807 12.4533 39.8207 13.0913 40.378 13.634Z" fill="black"/>
<path d="M65.2629 15.856C64.7643 16.296 64.1776 16.626 63.5029 16.846C62.8283 17.066 62.0949 17.176 61.3029 17.176C60.5109 17.176 59.7776 17.066 59.1029 16.846C58.4283 16.626 57.8416 16.296 57.3429 15.856C56.8443 15.4307 56.4556 14.8953 56.1769 14.25C55.8983 13.6047 55.7589 12.864 55.7589 12.028V3.338H54.0649V1.6H59.3889V3.338H57.5849V11.962C57.5849 12.5193 57.6729 13.018 57.8489 13.458C58.0396 13.8833 58.3036 14.2427 58.6409 14.536C58.9636 14.8293 59.3523 15.0567 59.8069 15.218C60.2616 15.3647 60.7603 15.438 61.3029 15.438C61.8456 15.438 62.3443 15.3647 62.7989 15.218C63.2536 15.0567 63.6496 14.8293 63.9869 14.536C64.3096 14.2427 64.5663 13.8833 64.7569 13.458C64.9476 13.018 65.0429 12.5193 65.0429 11.962V3.338H63.2389V1.6H68.5629V3.338H66.8689V12.028C66.8689 12.864 66.7223 13.6047 66.4289 14.25C66.1503 14.8953 65.7616 15.4307 65.2629 15.856Z" fill="black"/>
<path d="M75.4163 17H70.0923V15.262H71.0823V3.338H70.0923V1.6H74.7123C75.2109 1.6 75.7609 1.68066 76.3623 1.842C76.9783 1.98866 77.5503 2.23066 78.0783 2.568C78.6063 2.90533 79.0463 3.338 79.3983 3.866C79.7503 4.394 79.9263 5.032 79.9263 5.78C79.9263 6.88 79.6476 7.79666 79.0903 8.53C78.5476 9.26333 77.7483 9.74733 76.6923 9.982L79.1563 15.262H81.2243V17H78.0123L74.7783 10.114C74.5729 10.114 74.4116 10.1213 74.2943 10.136C74.1916 10.136 74.0376 10.136 73.8323 10.136H72.9083V15.262H75.4163V17ZM72.9083 3.338V8.376H74.8223C75.4676 8.376 75.9956 8.29533 76.4063 8.134C76.8316 7.958 77.1689 7.74533 77.4183 7.496C77.6676 7.24666 77.8436 6.968 77.9463 6.66C78.0489 6.352 78.1003 6.05866 78.1003 5.78C78.1003 5.45733 78.0123 5.14933 77.8363 4.856C77.6749 4.56266 77.4549 4.29866 77.1763 4.064C76.8829 3.844 76.5309 3.668 76.1203 3.536C75.7243 3.404 75.2989 3.338 74.8443 3.338H72.9083Z" fill="black"/>
<path d="M88.092 17H82.768V15.262H83.758V3.338H82.768V1.6H87.388C87.8867 1.6 88.4367 1.68066 89.038 1.842C89.654 1.98866 90.2261 2.23066 90.7541 2.568C91.2821 2.90533 91.7221 3.338 92.0741 3.866C92.4261 4.394 92.6021 5.032 92.6021 5.78C92.6021 7.11466 92.206 8.178 91.414 8.97C90.622 9.74733 89.478 10.136 87.982 10.136H85.584V15.262H88.092V17ZM85.584 3.338V8.376H87.498C88.1434 8.376 88.6714 8.29533 89.082 8.134C89.5074 7.958 89.8447 7.74533 90.094 7.496C90.3434 7.24666 90.5194 6.968 90.622 6.66C90.7247 6.352 90.776 6.05866 90.776 5.78C90.776 5.45733 90.688 5.14933 90.512 4.856C90.3507 4.56266 90.1307 4.29866 89.8521 4.064C89.5587 3.844 89.2067 3.668 88.7961 3.536C88.4001 3.404 87.9747 3.338 87.5201 3.338H85.584Z" fill="black"/>
<path d="M105.155 17H94.1333V15.262H95.3653V3.338H94.1333V1.6H104.847V4.988H103.109V3.338H97.1913V8.376H103.989V10.114H97.1913V15.262H103.417V13.612H105.155V17Z" fill="black"/>
<path d="M110.574 17H106.702V15.24H107.736V3.338H106.702V1.6H111.322C112.378 1.6 113.375 1.78333 114.314 2.15C115.252 2.502 116.074 3.01533 116.778 3.69C117.482 4.36466 118.039 5.17866 118.45 6.132C118.86 7.07066 119.066 8.134 119.066 9.322C119.066 10.1873 118.912 11.0747 118.604 11.984C118.31 12.8933 117.826 13.7147 117.152 14.448C116.477 15.196 115.597 15.812 114.512 16.296C113.441 16.7653 112.128 17 110.574 17ZM109.562 3.338V15.24H111.102C111.967 15.24 112.774 15.1007 113.522 14.822C114.27 14.5433 114.922 14.14 115.48 13.612C116.022 13.0987 116.448 12.4827 116.756 11.764C117.078 11.0307 117.24 10.2093 117.24 9.3C117.24 8.39066 117.078 7.56933 116.756 6.836C116.448 6.10266 116.022 5.472 115.48 4.944C114.922 4.43066 114.27 4.03466 113.522 3.756C112.774 3.47733 111.967 3.338 111.102 3.338H109.562Z" fill="black"/>
<path d="M125.926 17H120.602V15.262H122.34V3.338H120.602V1.6H125.926V3.338H124.166V15.262H125.926V17Z" fill="black"/>
<path d="M132.34 17H127.456V15.262H129.26C130.272 12.842 131.284 10.4513 132.296 8.09C133.322 5.714 134.342 3.316 135.354 0.895996C136.366 3.316 137.378 5.714 138.39 8.09C139.416 10.4513 140.436 12.842 141.448 15.262H143.252V17H138.368V15.262H139.6C139.292 14.5287 138.984 13.8027 138.676 13.084C138.382 12.3653 138.082 11.6393 137.774 10.906H132.934C132.523 11.874 132.215 12.6 132.01 13.084C131.804 13.568 131.496 14.294 131.086 15.262H132.34V17ZM135.112 5.67C134.848 6.242 134.591 6.84333 134.342 7.474C134.107 8.09 133.887 8.65466 133.682 9.168H137.026L135.552 5.67L135.332 4.944C135.273 5.17866 135.222 5.34733 135.178 5.45C135.148 5.55266 135.126 5.626 135.112 5.67Z" fill="black"/>
<path d="M39.084 30H36.42V29.052H37.404C37.956 27.732 38.508 26.428 39.06 25.14C39.62 23.844 40.176 22.536 40.728 21.216C41.28 22.536 41.832 23.844 42.384 25.14C42.944 26.428 43.5 27.732 44.052 29.052H45.036V30H42.372V29.052H43.044C42.876 28.652 42.708 28.256 42.54 27.864C42.38 27.472 42.216 27.076 42.048 26.676H39.408C39.184 27.204 39.016 27.6 38.904 27.864C38.792 28.128 38.624 28.524 38.4 29.052H39.084V30ZM40.596 23.82C40.452 24.132 40.312 24.46 40.176 24.804C40.048 25.14 39.928 25.448 39.816 25.728H41.64L40.836 23.82L40.716 23.424C40.684 23.552 40.656 23.644 40.632 23.7C40.616 23.756 40.604 23.796 40.596 23.82Z" fill="black"/>
<path d="M52.1387 30H49.4747V29.052H50.3867V26.448H49.5947V25.5H51.2627V25.608C51.2787 25.8 51.2907 25.976 51.2987 26.136C51.3147 26.288 51.3307 26.46 51.3467 26.652C51.5067 26.268 51.7627 25.964 52.1147 25.74C52.4747 25.508 52.8707 25.392 53.3027 25.392C53.7747 25.392 54.1467 25.516 54.4187 25.764C54.6907 26.012 54.8347 26.336 54.8507 26.736V29.052H55.5947V30H52.9307V29.052H53.8547V27.192C53.8387 26.976 53.7587 26.792 53.6147 26.64C53.4787 26.48 53.2587 26.392 52.9547 26.376C52.7467 26.376 52.5467 26.412 52.3547 26.484C52.1707 26.556 52.0067 26.656 51.8627 26.784C51.7187 26.912 51.6027 27.064 51.5147 27.24C51.4267 27.416 51.3827 27.608 51.3827 27.816V29.052H52.1387V30Z" fill="black"/>
<path d="M60.5516 29.412C60.3356 29.628 60.0796 29.8 59.7836 29.928C59.4876 30.048 59.1716 30.108 58.8356 30.108C58.4996 30.108 58.1836 30.048 57.8876 29.928C57.5996 29.8 57.3476 29.628 57.1316 29.412C56.9156 29.196 56.7436 28.948 56.6156 28.668C56.4956 28.388 56.4356 28.08 56.4356 27.744C56.4356 27.424 56.4956 27.12 56.6156 26.832C56.7436 26.544 56.9156 26.292 57.1316 26.076C57.3476 25.868 57.5996 25.704 57.8876 25.584C58.1836 25.456 58.4996 25.392 58.8356 25.392C59.1716 25.392 59.4876 25.456 59.7836 25.584C60.0796 25.704 60.3356 25.868 60.5516 26.076C60.7676 26.292 60.9356 26.544 61.0556 26.832C61.1836 27.12 61.2476 27.424 61.2476 27.744C61.2476 28.072 61.1836 28.38 61.0556 28.668C60.9356 28.948 60.7676 29.196 60.5516 29.412ZM57.8396 28.728C57.9596 28.856 58.1036 28.956 58.2716 29.028C58.4396 29.1 58.6196 29.136 58.8116 29.136C59.0036 29.136 59.1836 29.1 59.3516 29.028C59.5196 28.956 59.6676 28.856 59.7956 28.728C59.9236 28.608 60.0236 28.464 60.0956 28.296C60.1676 28.128 60.2036 27.948 60.2036 27.756C60.2036 27.564 60.1676 27.384 60.0956 27.216C60.0236 27.048 59.9236 26.9 59.7956 26.772C59.6676 26.644 59.5196 26.544 59.3516 26.472C59.1836 26.4 59.0036 26.364 58.8116 26.364C58.6196 26.364 58.4396 26.4 58.2716 26.472C58.1036 26.544 57.9596 26.644 57.8396 26.772C57.7116 26.9 57.6116 27.048 57.5396 27.216C57.4676 27.384 57.4316 27.564 57.4316 27.756C57.4316 27.948 57.4676 28.128 57.5396 28.296C57.6116 28.464 57.7116 28.608 57.8396 28.728Z" fill="black"/>
<path d="M64.9761 29.556C64.8641 29.708 64.7081 29.836 64.5081 29.94C64.3081 30.044 64.0481 30.096 63.7281 30.096C63.4321 30.096 63.1481 30.06 62.8761 29.988C62.6041 29.908 62.3881 29.78 62.2281 29.604V28.56H63.1161V29.028C63.2121 29.068 63.3041 29.096 63.3921 29.112C63.4881 29.12 63.6041 29.124 63.7401 29.124C63.8041 29.124 63.8681 29.116 63.9321 29.1C64.0041 29.084 64.0681 29.056 64.1241 29.016C64.1641 28.984 64.1961 28.944 64.2201 28.896C64.2521 28.84 64.2681 28.772 64.2681 28.692C64.2681 28.548 64.2241 28.44 64.1361 28.368C64.0561 28.288 63.9441 28.224 63.8001 28.176C63.6641 28.12 63.5121 28.068 63.3441 28.02C63.1761 27.964 63.0161 27.888 62.8641 27.792C62.7201 27.704 62.6001 27.576 62.5041 27.408C62.4081 27.24 62.3601 27.016 62.3601 26.736C62.3601 26.488 62.4081 26.28 62.5041 26.112C62.6001 25.944 62.7201 25.808 62.8641 25.704C63.0081 25.592 63.1641 25.512 63.3321 25.464C63.5001 25.416 63.6521 25.392 63.7881 25.392C63.8681 25.392 63.9641 25.4 64.0761 25.416C64.1961 25.432 64.3161 25.46 64.4361 25.5C64.5561 25.54 64.6721 25.592 64.7841 25.656C64.9041 25.72 65.0081 25.8 65.0961 25.896V26.94H64.2081V26.424C64.1441 26.408 64.0841 26.396 64.0281 26.388C63.9721 26.372 63.9121 26.364 63.8481 26.364C63.7601 26.364 63.6841 26.376 63.6201 26.4C63.5561 26.416 63.5041 26.44 63.4641 26.472C63.4241 26.512 63.3961 26.56 63.3801 26.616C63.3641 26.664 63.3601 26.72 63.3681 26.784C63.3841 26.88 63.4441 26.96 63.5481 27.024C63.6521 27.08 63.7761 27.136 63.9201 27.192C64.0561 27.248 64.2041 27.312 64.3641 27.384C64.5241 27.456 64.6721 27.544 64.8081 27.648C64.9441 27.76 65.0561 27.9 65.1441 28.068C65.2321 28.228 65.2761 28.432 65.2761 28.68C65.2761 28.792 65.2521 28.928 65.2041 29.088C65.1641 29.248 65.0881 29.404 64.9761 29.556Z" fill="black"/>
<path d="M68.9604 29.556C68.8484 29.708 68.6924 29.836 68.4924 29.94C68.2924 30.044 68.0324 30.096 67.7124 30.096C67.4164 30.096 67.1324 30.06 66.8604 29.988C66.5884 29.908 66.3724 29.78 66.2124 29.604V28.56H67.1004V29.028C67.1964 29.068 67.2884 29.096 67.3764 29.112C67.4724 29.12 67.5884 29.124 67.7244 29.124C67.7884 29.124 67.8524 29.116 67.9164 29.1C67.9884 29.084 68.0524 29.056 68.1084 29.016C68.1484 28.984 68.1804 28.944 68.2044 28.896C68.2364 28.84 68.2524 28.772 68.2524 28.692C68.2524 28.548 68.2084 28.44 68.1204 28.368C68.0404 28.288 67.9284 28.224 67.7844 28.176C67.6484 28.12 67.4964 28.068 67.3284 28.02C67.1604 27.964 67.0004 27.888 66.8484 27.792C66.7044 27.704 66.5844 27.576 66.4884 27.408C66.3924 27.24 66.3444 27.016 66.3444 26.736C66.3444 26.488 66.3924 26.28 66.4884 26.112C66.5844 25.944 66.7044 25.808 66.8484 25.704C66.9924 25.592 67.1484 25.512 67.3164 25.464C67.4844 25.416 67.6364 25.392 67.7724 25.392C67.8524 25.392 67.9484 25.4 68.0604 25.416C68.1804 25.432 68.3004 25.46 68.4204 25.5C68.5404 25.54 68.6564 25.592 68.7684 25.656C68.8884 25.72 68.9924 25.8 69.0804 25.896V26.94H68.1924V26.424C68.1284 26.408 68.0684 26.396 68.0124 26.388C67.9564 26.372 67.8964 26.364 67.8324 26.364C67.7444 26.364 67.6684 26.376 67.6044 26.4C67.5404 26.416 67.4884 26.44 67.4484 26.472C67.4084 26.512 67.3804 26.56 67.3644 26.616C67.3484 26.664 67.3444 26.72 67.3524 26.784C67.3684 26.88 67.4284 26.96 67.5324 27.024C67.6364 27.08 67.7604 27.136 67.9044 27.192C68.0404 27.248 68.1884 27.312 68.3484 27.384C68.5084 27.456 68.6564 27.544 68.7924 27.648C68.9284 27.76 69.0404 27.9 69.1284 28.068C69.2164 28.228 69.2604 28.432 69.2604 28.68C69.2604 28.792 69.2364 28.928 69.1884 29.088C69.1484 29.248 69.0724 29.404 68.9604 29.556Z" fill="black"/>
<path d="M75.7768 30H73.9888V29.76C73.9888 29.704 73.9888 29.664 73.9888 29.64C73.9888 29.616 73.9888 29.576 73.9888 29.52C73.9808 29.544 73.9408 29.588 73.8688 29.652C73.7968 29.716 73.6968 29.78 73.5688 29.844C73.4328 29.916 73.2728 29.976 73.0888 30.024C72.9048 30.08 72.6968 30.108 72.4648 30.108C72.1288 30.108 71.8128 30.048 71.5168 29.928C71.2208 29.8 70.9648 29.628 70.7488 29.412C70.5328 29.196 70.3608 28.948 70.2328 28.668C70.1128 28.38 70.0528 28.076 70.0528 27.756C70.0528 27.444 70.1128 27.144 70.2328 26.856C70.3608 26.568 70.5328 26.316 70.7488 26.1C70.9648 25.884 71.2208 25.712 71.5168 25.584C71.8128 25.456 72.1288 25.392 72.4648 25.392C72.9048 25.392 73.2528 25.472 73.5088 25.632C73.7648 25.784 73.9248 25.928 73.9888 26.064C73.9968 25.984 74.0048 25.896 74.0128 25.8C74.0288 25.696 74.0368 25.596 74.0368 25.5H74.8648V29.052H75.7768V30ZM72.4648 26.364C72.2488 26.364 72.0488 26.404 71.8648 26.484C71.6808 26.556 71.5288 26.66 71.4088 26.796C71.2968 26.916 71.2088 27.056 71.1448 27.216C71.0888 27.376 71.0608 27.552 71.0608 27.744C71.0608 27.968 71.1048 28.176 71.1928 28.368C71.2888 28.56 71.4168 28.72 71.5768 28.848C71.6888 28.936 71.8208 29.008 71.9728 29.064C72.1248 29.112 72.2888 29.136 72.4648 29.136C72.6648 29.136 72.8448 29.104 73.0048 29.04C73.1728 28.976 73.3168 28.888 73.4368 28.776C73.5728 28.648 73.6768 28.496 73.7488 28.32C73.8288 28.144 73.8688 27.952 73.8688 27.744C73.8688 27.536 73.8288 27.344 73.7488 27.168C73.6768 26.992 73.5768 26.844 73.4488 26.724C73.3208 26.612 73.1728 26.524 73.0048 26.46C72.8448 26.396 72.6648 26.364 72.4648 26.364Z" fill="black"/>
<path d="M82.613 26.364C82.389 26.364 82.185 26.404 82.001 26.484C81.825 26.556 81.673 26.66 81.545 26.796C81.449 26.908 81.369 27.036 81.305 27.18C81.249 27.324 81.217 27.48 81.209 27.648C81.585 27.512 81.957 27.376 82.325 27.24C82.701 27.096 83.077 26.956 83.453 26.82C83.341 26.684 83.213 26.576 83.069 26.496C82.933 26.408 82.781 26.364 82.613 26.364ZM84.137 29.472C83.937 29.672 83.709 29.828 83.453 29.94C83.197 30.052 82.917 30.108 82.613 30.108C82.277 30.108 81.961 30.048 81.665 29.928C81.377 29.8 81.125 29.628 80.909 29.412C80.693 29.196 80.521 28.948 80.393 28.668C80.273 28.38 80.213 28.072 80.213 27.744C80.213 27.424 80.273 27.12 80.393 26.832C80.521 26.544 80.693 26.292 80.909 26.076C81.125 25.868 81.377 25.704 81.665 25.584C81.961 25.456 82.277 25.392 82.613 25.392C82.861 25.392 83.097 25.444 83.321 25.548C83.553 25.644 83.761 25.78 83.945 25.956C84.121 26.132 84.277 26.344 84.413 26.592C84.549 26.832 84.653 27.096 84.725 27.384C84.181 27.584 83.637 27.784 83.093 27.984C82.557 28.184 82.017 28.384 81.473 28.584C81.593 28.752 81.749 28.888 81.941 28.992C82.141 29.088 82.365 29.136 82.613 29.136C82.797 29.136 82.965 29.104 83.117 29.04C83.269 28.976 83.405 28.88 83.525 28.752L84.137 29.472Z" fill="black"/>
<path d="M88.2793 30H85.6153V29.052H86.5273V26.448H85.7353V25.5H87.4033V25.608C87.4193 25.8 87.4313 25.976 87.4393 26.136C87.4553 26.288 87.4713 26.46 87.4873 26.652C87.6473 26.268 87.9033 25.964 88.2553 25.74C88.6153 25.508 89.0113 25.392 89.4433 25.392C89.9153 25.392 90.2873 25.516 90.5593 25.764C90.8313 26.012 90.9753 26.336 90.9913 26.736V29.052H91.7353V30H89.0713V29.052H89.9953V27.192C89.9793 26.976 89.8993 26.792 89.7553 26.64C89.6193 26.48 89.3993 26.392 89.0953 26.376C88.8873 26.376 88.6873 26.412 88.4953 26.484C88.3113 26.556 88.1473 26.656 88.0033 26.784C87.8593 26.912 87.7433 27.064 87.6553 27.24C87.5673 27.416 87.5233 27.608 87.5233 27.816V29.052H88.2793V30Z" fill="black"/>
<path d="M96.4762 29.592C96.2682 29.752 96.0363 29.88 95.7803 29.976C95.5323 30.064 95.2642 30.108 94.9762 30.108C94.6402 30.108 94.3243 30.048 94.0283 29.928C93.7403 29.8 93.4882 29.628 93.2722 29.412C93.0562 29.196 92.8842 28.948 92.7562 28.668C92.6362 28.388 92.5762 28.08 92.5762 27.744C92.5762 27.424 92.6362 27.12 92.7562 26.832C92.8842 26.544 93.0562 26.296 93.2722 26.088C93.4882 25.872 93.7403 25.704 94.0283 25.584C94.3243 25.456 94.6402 25.392 94.9762 25.392C95.2722 25.392 95.5483 25.44 95.8043 25.536C96.0603 25.624 96.2923 25.748 96.5003 25.908V27.3H95.6123V26.496C95.5163 26.448 95.4122 26.416 95.3002 26.4C95.1962 26.376 95.0882 26.364 94.9762 26.364C94.7842 26.364 94.6042 26.396 94.4362 26.46C94.2762 26.516 94.1363 26.596 94.0163 26.7C93.8723 26.828 93.7603 26.98 93.6803 27.156C93.6083 27.332 93.5723 27.528 93.5723 27.744C93.5723 27.944 93.6083 28.132 93.6803 28.308C93.7523 28.484 93.8522 28.636 93.9802 28.764C94.1082 28.876 94.2562 28.968 94.4242 29.04C94.5922 29.104 94.7762 29.136 94.9762 29.136C95.1522 29.136 95.3123 29.112 95.4563 29.064C95.6083 29.016 95.7483 28.94 95.8763 28.836L96.4762 29.592Z" fill="black"/>
<path d="M100.01 30H97.3458V29.052H98.1858V26.448H97.3458V25.5H99.1818V29.052H100.01V30ZM99.3138 23.76C99.3138 23.944 99.2498 24.096 99.1218 24.216C98.9938 24.328 98.8538 24.384 98.7018 24.384C98.5418 24.384 98.3978 24.328 98.2698 24.216C98.1418 24.096 98.0778 23.944 98.0778 23.76C98.0778 23.576 98.1418 23.424 98.2698 23.304C98.3978 23.184 98.5418 23.124 98.7018 23.124C98.8538 23.124 98.9938 23.184 99.1218 23.304C99.2498 23.424 99.3138 23.576 99.3138 23.76Z" fill="black"/>
<path d="M104.75 29.592C104.542 29.752 104.31 29.88 104.054 29.976C103.806 30.064 103.538 30.108 103.25 30.108C102.914 30.108 102.598 30.048 102.302 29.928C102.014 29.8 101.762 29.628 101.546 29.412C101.33 29.196 101.158 28.948 101.03 28.668C100.91 28.388 100.85 28.08 100.85 27.744C100.85 27.424 100.91 27.12 101.03 26.832C101.158 26.544 101.33 26.296 101.546 26.088C101.762 25.872 102.014 25.704 102.302 25.584C102.598 25.456 102.914 25.392 103.25 25.392C103.546 25.392 103.822 25.44 104.078 25.536C104.334 25.624 104.566 25.748 104.774 25.908V27.3H103.886V26.496C103.79 26.448 103.686 26.416 103.574 26.4C103.47 26.376 103.362 26.364 103.25 26.364C103.058 26.364 102.878 26.396 102.71 26.46C102.55 26.516 102.41 26.596 102.29 26.7C102.146 26.828 102.034 26.98 101.954 27.156C101.882 27.332 101.846 27.528 101.846 27.744C101.846 27.944 101.882 28.132 101.954 28.308C102.026 28.484 102.126 28.636 102.254 28.764C102.382 28.876 102.53 28.968 102.698 29.04C102.866 29.104 103.05 29.136 103.25 29.136C103.426 29.136 103.586 29.112 103.73 29.064C103.882 29.016 104.022 28.94 104.15 28.836L104.75 29.592Z" fill="black"/>
<path d="M108.283 30H105.619V29.052H106.531V21.948H105.739V21H107.527V29.052H108.283V30Z" fill="black"/>
<path d="M113.239 29.412C113.023 29.628 112.767 29.8 112.471 29.928C112.175 30.048 111.859 30.108 111.523 30.108C111.187 30.108 110.871 30.048 110.575 29.928C110.287 29.8 110.035 29.628 109.819 29.412C109.603 29.196 109.431 28.948 109.303 28.668C109.183 28.388 109.123 28.08 109.123 27.744C109.123 27.424 109.183 27.12 109.303 26.832C109.431 26.544 109.603 26.292 109.819 26.076C110.035 25.868 110.287 25.704 110.575 25.584C110.871 25.456 111.187 25.392 111.523 25.392C111.859 25.392 112.175 25.456 112.471 25.584C112.767 25.704 113.023 25.868 113.239 26.076C113.455 26.292 113.623 26.544 113.743 26.832C113.871 27.12 113.935 27.424 113.935 27.744C113.935 28.072 113.871 28.38 113.743 28.668C113.623 28.948 113.455 29.196 113.239 29.412ZM110.527 28.728C110.647 28.856 110.791 28.956 110.959 29.028C111.127 29.1 111.307 29.136 111.499 29.136C111.691 29.136 111.871 29.1 112.039 29.028C112.207 28.956 112.355 28.856 112.483 28.728C112.611 28.608 112.711 28.464 112.783 28.296C112.855 28.128 112.891 27.948 112.891 27.756C112.891 27.564 112.855 27.384 112.783 27.216C112.711 27.048 112.611 26.9 112.483 26.772C112.355 26.644 112.207 26.544 112.039 26.472C111.871 26.4 111.691 26.364 111.499 26.364C111.307 26.364 111.127 26.4 110.959 26.472C110.791 26.544 110.647 26.644 110.527 26.772C110.399 26.9 110.299 27.048 110.227 27.216C110.155 27.384 110.119 27.564 110.119 27.756C110.119 27.948 110.155 28.128 110.227 28.296C110.299 28.464 110.399 28.608 110.527 28.728Z" fill="black"/>
<path d="M114.892 33V32.052H115.696V26.448H114.772V25.5H116.524C116.532 25.604 116.54 25.704 116.548 25.8C116.556 25.888 116.564 25.976 116.572 26.064C116.652 25.952 116.82 25.812 117.076 25.644C117.332 25.476 117.672 25.392 118.096 25.392C118.432 25.392 118.748 25.456 119.044 25.584C119.34 25.704 119.596 25.872 119.812 26.088C120.028 26.304 120.196 26.556 120.316 26.844C120.444 27.124 120.508 27.424 120.508 27.744C120.508 28.064 120.444 28.368 120.316 28.656C120.196 28.944 120.028 29.196 119.812 29.412C119.596 29.628 119.34 29.8 119.044 29.928C118.748 30.048 118.432 30.108 118.096 30.108C117.872 30.108 117.672 30.084 117.496 30.036C117.32 29.988 117.168 29.932 117.04 29.868C116.912 29.804 116.824 29.756 116.776 29.724C116.728 29.684 116.692 29.648 116.668 29.616C116.676 29.64 116.68 29.668 116.68 29.7C116.688 29.732 116.692 29.756 116.692 29.772V32.052H117.556V33H114.892ZM118.096 26.364C117.88 26.364 117.684 26.4 117.508 26.472C117.332 26.544 117.184 26.644 117.064 26.772C116.944 26.892 116.852 27.036 116.788 27.204C116.724 27.372 116.692 27.552 116.692 27.744C116.692 27.952 116.728 28.148 116.8 28.332C116.88 28.508 116.992 28.66 117.136 28.788C117.256 28.892 117.396 28.976 117.556 29.04C117.724 29.104 117.904 29.136 118.096 29.136C118.288 29.136 118.464 29.108 118.624 29.052C118.784 28.988 118.924 28.904 119.044 28.8C119.188 28.68 119.3 28.528 119.38 28.344C119.46 28.16 119.5 27.96 119.5 27.744C119.5 27.52 119.456 27.32 119.368 27.144C119.288 26.96 119.176 26.804 119.032 26.676C118.912 26.58 118.772 26.504 118.612 26.448C118.452 26.392 118.28 26.364 118.096 26.364Z" fill="black"/>
<path d="M123.746 26.364C123.522 26.364 123.318 26.404 123.134 26.484C122.958 26.556 122.806 26.66 122.678 26.796C122.582 26.908 122.502 27.036 122.438 27.18C122.382 27.324 122.35 27.48 122.342 27.648C122.718 27.512 123.09 27.376 123.458 27.24C123.834 27.096 124.21 26.956 124.586 26.82C124.474 26.684 124.346 26.576 124.202 26.496C124.066 26.408 123.914 26.364 123.746 26.364ZM125.27 29.472C125.07 29.672 124.842 29.828 124.586 29.94C124.33 30.052 124.05 30.108 123.746 30.108C123.41 30.108 123.094 30.048 122.798 29.928C122.51 29.8 122.258 29.628 122.042 29.412C121.826 29.196 121.654 28.948 121.526 28.668C121.406 28.38 121.346 28.072 121.346 27.744C121.346 27.424 121.406 27.12 121.526 26.832C121.654 26.544 121.826 26.292 122.042 26.076C122.258 25.868 122.51 25.704 122.798 25.584C123.094 25.456 123.41 25.392 123.746 25.392C123.994 25.392 124.23 25.444 124.454 25.548C124.686 25.644 124.894 25.78 125.078 25.956C125.254 26.132 125.41 26.344 125.546 26.592C125.682 26.832 125.786 27.096 125.858 27.384C125.314 27.584 124.77 27.784 124.226 27.984C123.69 28.184 123.15 28.384 122.606 28.584C122.726 28.752 122.882 28.888 123.074 28.992C123.274 29.088 123.498 29.136 123.746 29.136C123.93 29.136 124.098 29.104 124.25 29.04C124.402 28.976 124.538 28.88 124.658 28.752L125.27 29.472ZM124.262 24.252H123.554C123.738 23.988 123.918 23.724 124.094 23.46C124.27 23.188 124.45 22.92 124.634 22.656H125.642C125.41 22.92 125.178 23.188 124.946 23.46C124.722 23.724 124.494 23.988 124.262 24.252Z" fill="black"/>
<path d="M132.472 30H130.684V29.76C130.684 29.704 130.684 29.664 130.684 29.64C130.684 29.616 130.684 29.576 130.684 29.52C130.676 29.544 130.636 29.588 130.564 29.652C130.492 29.716 130.392 29.78 130.264 29.844C130.128 29.916 129.968 29.976 129.784 30.024C129.6 30.08 129.392 30.108 129.16 30.108C128.824 30.108 128.508 30.048 128.212 29.928C127.916 29.8 127.66 29.628 127.444 29.412C127.228 29.196 127.056 28.944 126.928 28.656C126.808 28.368 126.748 28.064 126.748 27.744C126.748 27.424 126.808 27.124 126.928 26.844C127.056 26.556 127.228 26.304 127.444 26.088C127.66 25.872 127.916 25.704 128.212 25.584C128.508 25.456 128.824 25.392 129.16 25.392C129.36 25.392 129.548 25.42 129.724 25.476C129.908 25.532 130.068 25.596 130.204 25.668C130.34 25.74 130.436 25.8 130.492 25.848C130.548 25.888 130.584 25.92 130.6 25.944C130.584 25.88 130.572 25.8 130.564 25.704C130.564 25.6 130.564 25.52 130.564 25.464V21.948H129.772V21H131.56V29.052H132.472V30ZM129.16 26.364C128.952 26.364 128.76 26.4 128.584 26.472C128.408 26.544 128.256 26.64 128.128 26.76C128.016 26.888 127.924 27.036 127.852 27.204C127.788 27.364 127.756 27.544 127.756 27.744C127.756 27.952 127.796 28.148 127.876 28.332C127.956 28.516 128.064 28.668 128.2 28.788C128.32 28.9 128.46 28.988 128.62 29.052C128.788 29.108 128.968 29.136 129.16 29.136C129.352 29.136 129.528 29.108 129.688 29.052C129.848 28.988 129.992 28.9 130.12 28.788C130.256 28.668 130.364 28.516 130.444 28.332C130.524 28.148 130.564 27.952 130.564 27.744C130.564 27.52 130.52 27.316 130.432 27.132C130.352 26.948 130.24 26.796 130.096 26.676C129.976 26.58 129.836 26.504 129.676 26.448C129.516 26.392 129.344 26.364 129.16 26.364Z" fill="black"/>
<path d="M135.975 30H133.311V29.052H134.151V26.448H133.311V25.5H135.147V29.052H135.975V30ZM135.279 23.76C135.279 23.944 135.215 24.096 135.087 24.216C134.959 24.328 134.819 24.384 134.667 24.384C134.507 24.384 134.363 24.328 134.235 24.216C134.107 24.096 134.043 23.944 134.043 23.76C134.043 23.576 134.107 23.424 134.235 23.304C134.363 23.184 134.507 23.124 134.667 23.124C134.819 23.124 134.959 23.184 135.087 23.304C135.215 23.424 135.279 23.576 135.279 23.76Z" fill="black"/>
<path d="M142.539 30H140.751V29.76C140.751 29.704 140.751 29.664 140.751 29.64C140.751 29.616 140.751 29.576 140.751 29.52C140.743 29.544 140.703 29.588 140.631 29.652C140.559 29.716 140.459 29.78 140.331 29.844C140.195 29.916 140.035 29.976 139.851 30.024C139.667 30.08 139.459 30.108 139.227 30.108C138.891 30.108 138.575 30.048 138.279 29.928C137.983 29.8 137.727 29.628 137.511 29.412C137.295 29.196 137.123 28.948 136.995 28.668C136.875 28.38 136.815 28.076 136.815 27.756C136.815 27.444 136.875 27.144 136.995 26.856C137.123 26.568 137.295 26.316 137.511 26.1C137.727 25.884 137.983 25.712 138.279 25.584C138.575 25.456 138.891 25.392 139.227 25.392C139.667 25.392 140.015 25.472 140.271 25.632C140.527 25.784 140.687 25.928 140.751 26.064C140.759 25.984 140.767 25.896 140.775 25.8C140.791 25.696 140.799 25.596 140.799 25.5H141.627V29.052H142.539V30ZM139.227 26.364C139.011 26.364 138.811 26.404 138.627 26.484C138.443 26.556 138.291 26.66 138.171 26.796C138.059 26.916 137.971 27.056 137.907 27.216C137.851 27.376 137.823 27.552 137.823 27.744C137.823 27.968 137.867 28.176 137.955 28.368C138.051 28.56 138.179 28.72 138.339 28.848C138.451 28.936 138.583 29.008 138.735 29.064C138.887 29.112 139.051 29.136 139.227 29.136C139.427 29.136 139.607 29.104 139.767 29.04C139.935 28.976 140.079 28.888 140.199 28.776C140.335 28.648 140.439 28.496 140.511 28.32C140.591 28.144 140.631 27.952 140.631 27.744C140.631 27.536 140.591 27.344 140.511 27.168C140.439 26.992 140.339 26.844 140.211 26.724C140.083 26.612 139.935 26.524 139.767 26.46C139.607 26.396 139.427 26.364 139.227 26.364Z" fill="black"/>
<path d="M13.8968 1.00007C14.1781 1.00007 14.4334 1.11486 14.6183 1.29992C14.8033 1.48498 14.9181 1.74029 14.9181 2.02136V5.23512C14.9181 5.35663 14.8848 5.47231 14.8232 5.57345C14.7624 5.67348 14.6749 5.75582 14.5657 5.81199C14.4563 5.86838 14.3386 5.8921 14.2224 5.88382C14.1061 5.87554 13.9928 5.83526 13.8921 5.76388C13.6793 5.61283 13.4451 5.49513 13.1976 5.41637C12.9559 5.33939 12.697 5.29844 12.4289 5.29844C11.7319 5.29844 11.1005 5.58106 10.6435 6.03821C10.1866 6.49514 9.90373 7.12661 9.90373 7.82388C9.90373 8.52091 10.1866 9.15236 10.6435 9.60931C11.1004 10.0662 11.7317 10.3491 12.4289 10.3491C12.6972 10.3491 12.9559 10.3081 13.1978 10.2309C13.4451 10.1522 13.6793 10.0345 13.8919 9.88342C13.9926 9.81204 14.1058 9.77154 14.2224 9.76348C14.3388 9.75498 14.4565 9.77892 14.5657 9.83531C14.6749 9.89148 14.7624 9.97382 14.823 10.0738C14.8848 10.175 14.9179 10.2907 14.9179 10.4124V14.9124C14.9179 15.1925 14.8033 15.4476 14.6183 15.6327V15.634C14.4334 15.8186 14.1781 15.9336 13.8966 15.9336H9.76095C9.63855 15.9336 9.52241 15.8998 9.42172 15.8381C9.32058 15.7761 9.23779 15.687 9.18184 15.5765C9.1259 15.4662 9.10308 15.348 9.11248 15.2321C9.12165 15.1158 9.16372 15.0025 9.23734 14.9016L9.23801 14.9007C9.39375 14.6875 9.51481 14.4492 9.59738 14.1961C9.67816 13.9486 9.7209 13.685 9.7209 13.4138C9.7209 12.7179 9.43873 12.0878 8.98245 11.6318C8.52619 11.1757 7.89605 10.8933 7.20016 10.8933C6.50427 10.8933 5.87432 11.1755 5.4181 11.6318C4.96207 12.0878 4.67988 12.7182 4.67988 13.4138C4.67988 13.685 4.72262 13.9488 4.8034 14.1963C4.88574 14.4494 5.00747 14.687 5.16321 14.9001C5.2366 15.0008 5.27867 15.1147 5.28807 15.2319C5.29747 15.348 5.27465 15.4662 5.21871 15.5763L5.21804 15.5774C5.16254 15.6864 5.08087 15.7748 4.97973 15.8372C4.87903 15.8992 4.76312 15.9334 4.6396 15.9334H1.02107C0.739566 15.9334 0.48425 15.8186 0.2994 15.6338C0.290897 15.6255 0.283289 15.6168 0.275904 15.6081C0.104945 15.4255 0 15.1804 0 14.9119V2.02126C0 1.74088 0.114569 1.48578 0.299402 1.30096C0.485129 1.11524 0.740445 0.999997 1.02107 0.999997L13.8968 1.00007ZM24.6497 15.5577C24.5841 15.5642 24.4207 15.6128 24.3679 15.8392V16.8482C24.9629 17.1988 25.3623 17.846 25.3623 18.5864C25.3623 19.6999 24.4596 20.6025 23.3462 20.6025C22.2328 20.6025 21.3301 19.6998 21.3301 18.5864C21.3301 17.8457 21.7295 17.1988 22.3245 16.8482V15.8392L22.043 15.5577H16.1026C15.7479 15.5577 15.4572 15.2671 15.4572 14.9121V9.12699C15.4572 8.97215 15.3306 8.84527 15.1757 8.84527H14.1668C13.8162 9.44051 13.169 9.83966 12.4286 9.83966C11.3151 9.83966 10.4124 8.93698 10.4124 7.82377C10.4124 6.71011 11.3151 5.80765 12.4286 5.80765C13.1692 5.80765 13.8162 6.20708 14.1668 6.80205H15.1757C15.3306 6.80205 15.4572 6.67518 15.4572 6.52055V2.0215C15.4572 1.66683 15.747 1.37614 16.1026 1.37614H28.9784C29.334 1.37614 29.6235 1.66591 29.6235 2.0215V14.9122C29.6235 15.2677 29.3338 15.5578 28.9784 15.5578L24.6497 15.5577ZM24.6951 15.0565H28.9791C29.0196 15.0565 29.0556 15.0408 29.0807 15.016C29.1069 14.9896 29.1232 14.9531 29.1232 14.9124V2.0217C29.1232 1.98746 29.1116 1.95614 29.0923 1.9313L29.0807 1.92011C29.0545 1.89393 29.0185 1.87759 28.9791 1.87759H16.1033C16.0691 1.87759 16.0382 1.88878 16.0142 1.90736L16.0019 1.92033C15.9755 1.94674 15.9592 1.98254 15.9592 2.02192V6.52097C15.9592 6.73668 15.8713 6.9327 15.7296 7.07412L15.7287 7.07323L15.7278 7.07412C15.586 7.21577 15.3908 7.3037 15.1765 7.3037H14.1675V7.30191C13.9961 7.30169 13.8296 7.21352 13.7368 7.0551C13.6036 6.8291 13.4114 6.64001 13.18 6.50754C12.9594 6.38134 12.7032 6.30929 12.4291 6.30929C12.0109 6.30929 11.632 6.4789 11.3579 6.75302C11.0838 7.02713 10.9142 7.40594 10.9142 7.82417C10.9142 8.2424 11.0838 8.62123 11.3579 8.89533C11.632 9.16945 12.0109 9.33884 12.4291 9.33884C12.7032 9.33884 12.9594 9.26656 13.18 9.14058C13.4002 9.01461 13.585 8.83693 13.7173 8.62525C13.799 8.45899 13.9697 8.34442 14.1675 8.34442H15.1765C15.3922 8.34442 15.5882 8.43237 15.7296 8.57401L15.7287 8.5749L15.7296 8.5758C15.8713 8.71745 15.9592 8.91279 15.9592 9.12716V14.9123C15.9592 14.9512 15.9755 14.9873 16.0022 15.0137L16.0013 15.0146L16.0022 15.0155C16.0274 15.0407 16.0632 15.0564 16.1033 15.0564H22.0437V15.0577C22.1719 15.0577 22.3003 15.107 22.3981 15.2052L22.6521 15.4594C22.7588 15.5512 22.8266 15.6874 22.8266 15.8394V16.8483H22.8248C22.8246 17.0197 22.7365 17.1862 22.578 17.2791C22.3522 17.4122 22.1629 17.6044 22.0305 17.8358C21.9045 18.0562 21.8322 18.3124 21.8322 18.5865C21.8322 19.0047 22.0018 19.3836 22.2759 19.6577C22.5501 19.9318 22.9289 20.1014 23.3471 20.1014C23.7655 20.1014 24.1442 19.9318 24.4183 19.6577C24.6924 19.3835 24.862 19.0047 24.862 18.5865C24.862 18.3124 24.7897 18.0562 24.6637 17.8356C24.5378 17.6154 24.3601 17.4305 24.1482 17.2983C23.9819 17.2166 23.8676 17.0459 23.8676 16.8481V15.8391C23.8676 15.4692 24.363 15.0565 24.6951 15.0565ZM16.103 16.8187C16.0294 16.8187 15.9623 16.8493 15.9133 16.8983L15.9005 16.9104C15.8589 16.9581 15.8336 17.0205 15.8336 17.0883V20.7722C16.0641 20.6272 16.3131 20.5108 16.5745 20.4269C16.8943 20.3244 17.2297 20.2701 17.571 20.2701C18.4719 20.2701 19.288 20.6355 19.8784 21.226C20.469 21.8166 20.8344 22.6324 20.8344 23.5335C20.8344 24.4346 20.469 25.2507 19.8784 25.8412C19.2879 26.4319 18.4721 26.7973 17.571 26.7973C17.2297 26.7973 16.8941 26.7429 16.5743 26.6405C16.313 26.5566 16.0642 26.4404 15.8334 26.2954V29.9791C15.8334 30.0538 15.8639 30.1216 15.9129 30.1706C15.9607 30.2185 16.0281 30.2485 16.1028 30.2485H28.9786C29.0525 30.2485 29.1198 30.2181 29.1688 30.1693L29.1816 30.1572C29.223 30.1098 29.248 30.0473 29.248 29.9791V17.0884C29.248 17.0139 29.2181 16.9463 29.1695 16.8975C29.1207 16.8488 29.0527 16.819 28.9786 16.819H26.1008C26.252 17.0544 26.3729 17.3075 26.4593 17.5726C26.5649 17.8966 26.6208 18.2383 26.6208 18.587C26.6208 19.491 26.2541 20.3097 25.6615 20.9023C25.069 21.4951 24.2502 21.8616 23.346 21.8616C22.442 21.8616 21.6232 21.4948 21.0304 20.9023C20.4377 20.3097 20.0712 19.491 20.0712 18.587C20.0712 18.2383 20.1271 17.8969 20.2327 17.5729C20.3191 17.3079 20.4397 17.0544 20.5912 16.819L16.103 16.8187ZM15.3816 16.3667C15.5664 16.1816 15.8217 16.0668 16.103 16.0668H20.7825C20.9049 16.0668 21.0208 16.1004 21.1217 16.1624C21.213 16.2183 21.2895 16.2964 21.3448 16.3928C21.3506 16.4025 21.3564 16.4121 21.3616 16.4224C21.4175 16.5325 21.4405 16.6511 21.4311 16.7683C21.422 16.8845 21.3799 16.9979 21.3063 17.0988C21.1512 17.3114 21.0297 17.5495 20.9465 17.8046C20.8659 18.0518 20.8232 18.3154 20.8232 18.5866C20.8232 19.283 21.1056 19.9138 21.5623 20.3705C22.019 20.827 22.6497 21.1096 23.3462 21.1096C24.0427 21.1096 24.6735 20.8272 25.13 20.3705C25.5867 19.914 25.8691 19.2832 25.8691 18.5866C25.8691 18.3152 25.8262 18.0518 25.7456 17.8043C25.6626 17.5495 25.5411 17.3114 25.386 17.0988C25.3124 16.9979 25.2706 16.8845 25.2612 16.7683C25.2526 16.6618 25.2712 16.5537 25.3173 16.4517C25.3211 16.4418 25.3258 16.4322 25.3305 16.4226C25.3862 16.3132 25.469 16.2248 25.5704 16.1626C25.6713 16.1006 25.7872 16.067 25.9096 16.067H28.9786C29.2601 16.067 29.5154 16.1816 29.7005 16.3664V16.3678C29.8851 16.5528 29.9999 16.8077 29.9999 17.0881V29.9788C29.9999 30.2473 29.8949 30.4921 29.724 30.6746C29.7166 30.6836 29.7088 30.6921 29.7005 30.7006C29.5156 30.8852 29.2603 31 28.9786 31H16.1028C15.8222 31 15.5669 30.8848 15.3814 30.6988C15.1963 30.5138 15.0817 30.2589 15.0817 29.9787V26.1054C15.0817 25.9836 15.1151 25.8677 15.1766 25.7668C15.2377 25.6665 15.3254 25.5844 15.4344 25.5283C15.5443 25.4716 15.6622 25.4479 15.7781 25.4564C15.8965 25.4652 16.0101 25.5054 16.1099 25.577C16.3216 25.7283 16.5552 25.8469 16.8034 25.9266C17.0453 26.0042 17.3037 26.0452 17.5709 26.0452C18.2641 26.0452 18.8922 25.7639 19.3467 25.3094C19.8012 24.8547 20.0824 24.2268 20.0824 23.5334C20.0824 22.8399 19.8012 22.212 19.3467 21.7575C18.8922 21.3031 18.2641 21.0218 17.5709 21.0218C17.3037 21.0218 17.0455 21.063 16.8035 21.1404C16.5552 21.22 16.3207 21.3382 16.1085 21.4899C16.0085 21.5613 15.8953 21.6018 15.7782 21.6103C15.6632 21.6188 15.546 21.5951 15.4361 21.5387C15.3256 21.4819 15.2374 21.3995 15.1767 21.3002C15.115 21.199 15.0819 21.0833 15.0819 20.9614V17.088C15.0819 16.8199 15.187 16.5749 15.358 16.3921C15.3654 16.3834 15.3733 16.3749 15.3816 16.3667ZM8.49257 16.9408C8.24486 16.8994 7.72101 16.7678 7.72101 16.1612V15.1523H7.7228C7.72302 14.9811 7.81118 14.8144 7.96961 14.7215C8.19561 14.5884 8.3847 14.396 8.51717 14.1648C8.64315 13.9442 8.71542 13.688 8.71542 13.4139C8.71542 12.9956 8.54581 12.6168 8.27192 12.3427C7.9978 12.0686 7.61899 11.8992 7.20053 11.8992C6.78231 11.8992 6.40348 12.0688 6.12937 12.3427C5.85525 12.6168 5.68564 12.9956 5.68564 13.4139C5.68564 13.688 5.75792 13.9442 5.8839 14.1648C6.00988 14.385 6.18755 14.57 6.39923 14.7021C6.56549 14.7837 6.67983 14.9545 6.67983 15.1523V16.1612C6.67983 16.684 6.51335 16.9223 5.89687 16.944H1.021C0.981622 16.944 0.945596 16.9603 0.919417 16.9865L0.918522 16.9856C0.892788 17.0118 0.876901 17.048 0.876901 17.0883V29.979C0.876901 30.0132 0.888537 30.0445 0.907781 30.0694L0.919641 30.0806C0.945821 30.1067 0.981845 30.1231 1.02123 30.1231H13.897C13.9362 30.1231 13.972 30.1067 13.9984 30.0806L13.9993 30.0815C14.025 30.0551 14.0409 30.019 14.0409 29.979V24.8368C14.0409 24.6211 14.1288 24.4251 14.2705 24.2836C14.4121 24.142 14.6081 24.0541 14.8236 24.0541H15.8326V24.0559C16.004 24.0561 16.1705 24.1442 16.2633 24.3027C16.3965 24.5287 16.5887 24.7178 16.8201 24.8502C17.0407 24.9764 17.2969 25.0485 17.5708 25.0485C17.9892 25.0485 18.3678 24.8789 18.6419 24.6048C18.916 24.3306 19.0857 23.9518 19.0857 23.5336C19.0857 23.1151 18.916 22.7365 18.6419 22.4624C18.3678 22.1883 17.9892 22.0189 17.5708 22.0189C17.2969 22.0189 17.0407 22.091 16.8201 22.2172C16.5999 22.3432 16.4148 22.5208 16.2828 22.7325C16.2011 22.8988 16.0304 23.0131 15.8326 23.0131H14.8236C14.6079 23.0131 14.4119 22.9252 14.2705 22.7838L14.2714 22.7829L14.2705 22.782C14.1288 22.6403 14.0409 22.445 14.0409 22.2308V17.0887C14.0409 17.0484 14.0246 17.0117 13.9979 16.9855C13.9726 16.9602 13.9371 16.9445 13.8968 16.9445L8.49257 16.9408ZM8.50353 16.4425H13.8967C14.2514 16.4425 14.5419 16.7334 14.5419 17.0881V22.2303C14.5419 22.3851 14.6685 22.5118 14.8234 22.5118H15.8323C16.183 21.9168 16.8301 21.5176 17.5705 21.5176C18.684 21.5176 19.5867 22.4203 19.5867 23.5337C19.5867 24.6472 18.684 25.5498 17.5705 25.5498C16.8301 25.5498 16.183 25.1504 15.8323 24.5554H14.8234C14.6685 24.5554 14.5419 24.6823 14.5419 24.8369V29.9791C14.5419 30.3338 14.2521 30.6245 13.8967 30.6245H1.02095C0.665382 30.6245 0.37581 30.3347 0.37581 29.9791V17.0884C0.37581 16.7329 0.665588 16.4428 1.02095 16.4428H5.89681C6.03913 16.4234 6.17854 16.2782 6.17854 16.1613V15.1524C5.58352 14.802 5.18414 14.1546 5.18414 13.4142C5.18414 12.3007 6.08682 11.3983 7.20026 11.3983C8.31392 11.3983 9.21638 12.301 9.21638 13.4142C9.21638 14.1548 8.81695 14.802 8.22198 15.1524V16.1613C8.22399 16.2782 8.26567 16.4029 8.50353 16.4425ZM14.0867 1.83099C14.0377 1.78198 13.9704 1.75155 13.8968 1.75155H1.02098C0.94624 1.75155 0.878886 1.78131 0.830778 1.8292C0.781997 1.87821 0.751566 1.94601 0.751566 2.02097V14.9117C0.751566 14.9799 0.776851 15.0423 0.818027 15.0898L0.830782 15.1019C0.879563 15.1506 0.947138 15.1811 1.02098 15.1811H4.4475C4.2969 14.9466 4.17652 14.6935 4.08992 14.4277C3.9843 14.1037 3.92836 13.762 3.92836 13.4133C3.92836 12.51 4.29466 11.6917 4.88673 11.0996C5.47882 10.5072 6.29689 10.1412 7.20027 10.1412C8.10381 10.1412 8.92195 10.5075 9.51404 11.0996C10.1064 11.6919 10.4726 12.51 10.4726 13.4133C10.4726 13.762 10.4167 14.1039 10.3111 14.4277C10.2243 14.6935 10.1039 14.9468 9.95327 15.1813H13.8969C13.9708 15.1813 14.0381 15.1509 14.0869 15.1019C14.1355 15.0529 14.1664 14.9859 14.1664 14.9117V10.6006C13.9357 10.7449 13.6862 10.8604 13.4239 10.944C13.1039 11.0461 12.7687 11.1002 12.4288 11.1002C11.5241 11.1002 10.7049 10.7333 10.1117 10.1403C9.51872 9.54726 9.15175 8.7281 9.15175 7.8234C9.15175 6.91871 9.51873 6.09926 10.1117 5.50608C10.7047 4.91308 11.5239 4.54611 12.4286 4.54611C12.7685 4.54611 13.1035 4.60026 13.4234 4.7023C13.6859 4.78599 13.9354 4.90168 14.1661 5.04601V2.02111C14.1661 1.94749 14.1357 1.88022 14.0867 1.83099Z" fill="black"/>
</svg>
